<?xml version="1.0" encoding="UTF-8" standalone="no"?>
<svg
   xmlns:dc="http://purl.org/dc/elements/1.1/"
   xmlns:cc="http://creativecommons.org/ns#"
   xmlns:rdf="http://www.w3.org/1999/02/22-rdf-syntax-ns#"
   xmlns:svg="http://www.w3.org/2000/svg"
   xmlns="http://www.w3.org/2000/svg"
   version="1.1"
   id="svg44"
   width="80"
   height="32"
   viewBox="0 0 80 32">
  <metadata
     id="metadata50">
    <rdf:RDF>
      <cc:Work
         rdf:about="">
        <dc:format>image/svg+xml</dc:format>
        <dc:type
           rdf:resource="http://purl.org/dc/dcmitype/StillImage" />
        <dc:title></dc:title>
      </cc:Work>
    </rdf:RDF>
  </metadata>
  <defs
     id="defs48" />
  <g
     id="g52">
    <path
       style="fill:#000000;stroke-width:0.32"
       d="m 25.84668,29.969371 -0.418298,-0.02526 -0.48,-0.158136 -0.48,-0.158135 -0.705521,-0.342927 -0.705522,-0.342925 -0.494478,-1.042037 -0.494479,-1.042037 v -7.071638 -7.071639 h -1.28 -1.28 V 12.448883 12.18313 l 1.404949,-1.008959 1.40495,-1.008958 1.540836,-1.903515 1.540836,-1.903516 0.254214,0.157113 0.254215,0.157113 v 2.381115 2.381114 h 2.24 2.239999 v 0.64 0.64 h -2.239999 -2.24 v 6.808798 6.808798 l 0.498145,0.711202 0.498146,0.711202 h 1.218699 1.2187 l 0.813628,-0.64 0.813628,-0.64 h 0.189526 0.189527 v 0.456703 0.456702 l -1.158621,0.955034 -1.158621,0.955033 -1.383081,0.348264 -1.383081,0.348264 z m -14.705096,-0.368426 -6.5539143,0.08631 -0.219644,-0.219643 -0.219645,-0.219645 v -0.225953 -0.225953 l 1.659658,-0.159472 1.659658,-0.159472 0.580342,-0.716693 0.580343,-0.716692 V 16.234634 5.425536 l -0.560001,-0.684066 -0.56,-0.684067 -1.68,-0.195957 -1.68,-0.195958 V 3.390061 3.114634 h 6.8800013 6.88 V 3.393921 3.673208 L 16.248724,3.83268 14.589066,3.992152 14.008724,4.708844 13.428382,5.425536 v 10.809098 10.809098 l 0.580342,0.716692 0.580342,0.716693 1.672347,0.160691 1.672347,0.160691 -0.119131,0.358067 -0.119131,0.358068 z m 30.343914,-0.0011 -8.537117,0.08523 V 29.23987 28.794666 l 6.09391,-8.040022 6.093911,-8.040022 H 41.033495 36.930784 L 36.22896,13.2062 35.527133,13.697778 35.147104,14.9662 34.767075,16.234622 h -0.269347 -0.269347 v -2.4 -2.4 h 8 8 v 0.291265 0.291265 l -1.214797,1.548735 -1.214793,1.548735 -5.069914,6.675968 -5.06991,6.675968 4.823488,-0.117645 4.823488,-0.117646 0.901219,-0.661736 0.901219,-0.661736 0.48,-1.494737 0.48,-1.494736 0.32,0.109867 0.32,0.109866 -0.107427,1.80736 -0.107427,1.807359 -0.235456,0.880924 -0.235456,0.880924 z m 16.883997,0.07477 h -5.261114 v -0.282011 -0.282011 l 1.450694,-0.36529 1.450698,-0.365289 0.309302,-0.813531 0.309306,-0.813532 V 16.285004 5.817038 L 56.130237,5.105836 55.63209,4.394634 h -1.485853 -1.485856 l 0.304,-0.291464 0.304,-0.291464 3.465616,-0.828536 3.465616,-0.828536 h 0.134384 0.134384 V 14.931777 27.70892 l 0.473658,0.473658 0.47366,0.473659 1.2877,0.217555 1.287702,0.217556 -0.180246,0.291643 -0.180244,0.291643 z m 12.658886,0 h -5.44 v -0.291854 -0.291872 l 1.281763,-0.216553 1.281767,-0.216553 0.478233,-0.682777 0.478237,-0.682776 v -6.449616 -6.449616 l -0.475594,-0.394706 -0.47559,-0.394707 -1.12441,0.131268 -1.124406,0.131269 9.6e-4,-0.335744 9.6e-4,-0.335744 3.119072,-0.925175 3.119072,-0.925175 0.4,-0.149062 0.4,-0.149061 0.0019,7.474237 0.0019,7.474236 0.333014,1.199119 0.333015,1.199118 1.4252,0.358871 1.424867,0.35887 v 0.282011 0.282011 z m -0.420954,-23.36 H 70.154691 L 69.311536,5.65139 68.468381,4.988164 V 4.21139 3.434615 l 0.64,-0.64 0.64,-0.64 h 0.92455 0.924548 l 0.657328,0.56 0.657328,0.56 0.05604,0.48 0.05604,0.48 -0.03792,0.551783 -0.03791,0.551782 -0.944109,0.488218 -0.944109,0.488217 z"
       id="path58" />
  </g>
</svg>
